# xmcd CD database file
#
# Track frame offsets:
#	150
#	18915
#	32726
#	91733
#	113929
#	139505
#	167739
#	188061
#	207053
#	224073
#
# Disc length: 3532 seconds
#
# Revision: 0
# Processed by: cddbd v1.5.1PL0 Copyright (c) Steve Scherf et al.
# Submitted via: CDex 1.51
#
DISCID=830dca0a
DTITLE=Chet Baker - Time After Time
DYEAR=1900
DGENRE=Jazz
TTITLE0=Time After Time
TTITLE1=My Funny Valentine
TTITLE2=A Night in Tunisia
TTITLE3=My Old Flame
TTITLE4=You Don't Know What love Is
TTITLE5=This is Always
TTITLE6=Long Ago (And Far Away)
TTITLE7=Isn't It Romantic
TTITLE8=A Line For Lyons
TTITLE9=All The Things You Are
EXTD=
EXTT0=
EXTT1=
EXTT2=
EXTT3=
EXTT4=
EXTT5=
EXTT6=
EXTT7=
EXTT8=
EXTT9=
PLAYORDER=
